<?xml version='1.0' encoding='utf-8'?>
<svg xmlns="http://www.w3.org/2000/svg" version="1.1" width="600px" height="976px" viewBox="0 0 600 976"> <g id="layer1"> <g> <g style="fill:rgb(0,0,0); fill-opacity:1.0; stroke-linejoin: miter"> <path d="M312.71292,469.20438C312.6644,469.20972,312.60074,469.2253,312.5776,469.23734C312.5589,469.24756,312.481,469.30145,312.46896,469.31302C312.46185,469.31924,312.43915,469.35086,312.4182,469.38336C312.38126,469.4408,312.3799,469.44257,312.3559,469.45148C312.34253,469.45636,312.32248,469.46527,312.3109,469.4715C312.29935,469.47775,312.28464,469.48264,312.27753,469.48264C312.25616,469.48264,312.24103,469.4942,312.21744,469.5294C312.18625,469.57434,312.17825,469.59128,312.16934,469.62866C312.16312,469.65405,312.16266,469.66293,312.1667,469.67184C312.17334,469.68652,312.17334,469.7017,312.1671,469.7159C312.16266,469.7257,312.16354,469.72882,312.1738,469.7413C312.18314,469.75198,312.18536,469.75867,312.18314,469.76712C312.1796,469.7818,312.16132,469.79828,312.13638,469.80853C312.10345,469.82278,312.01974,469.86105,312.00284,469.86996C311.93872,469.90335,311.91113,469.92072,311.90756,469.93097C311.9058,469.93497,311.90533,469.93854,311.90622,469.93942C311.90714,469.9403,311.92404,469.9363,311.94406,469.93005C311.9641,469.9243,311.9944,469.9176,312.01086,469.91537C312.0273,469.9127,312.04913,469.90692,312.0585,469.90158C312.08075,469.88956,312.10257,469.88956,312.11414,469.90112C312.12527,469.91226,312.12527,469.91803,312.11414,469.93228C312.10925,469.93854,312.10522,469.94476,312.10522,469.94653C312.10522,469.9541,312.12616,469.94965,312.14175,469.93896C312.16177,469.9256,312.17914,469.9243,312.18314,469.9363C312.18805,469.95233,312.16888,469.9795,312.13104,470.01154C312.09412,470.0427,312.07675,470.05963,312.06473,470.07742C312.05136,470.0979,312.00284,470.15802,311.98325,470.17892C311.96143,470.2025,311.95966,470.21008,311.96545,470.2546C311.96722,470.26797,311.9708,470.2751,311.9748,470.2751C311.98682,470.2751,312.02377,470.23502,312.0469,470.19717C312.0656,470.16647,312.07718,470.15356,312.10657,470.1304C312.12662,470.11438,312.14618,470.10147,312.1502,470.10147C312.16,470.10147,312.1707,470.11438,312.17422,470.13174C312.17603,470.14154,312.18137,470.14822,312.18848,470.15176C312.2005,470.1571,312.21652,470.1883,312.21652,470.2061C312.21652,470.22345,312.19962,470.2377,312.1453,470.2653C312.11725,470.27954,312.08698,470.29825,312.07806,470.3067C312.02063,470.36102,311.9227,470.45984,311.9227,470.4634C311.9227,470.4661,311.90802,470.48257,311.89066,470.4999C311.87283,470.51727,311.8301,470.56137,311.7958,470.5974C311.72104,470.67667,311.6507,470.7479,311.62665,470.76926C311.6017,470.79153,311.498,470.89926,311.46814,470.934C311.4223,470.98743,311.39737,471.03415,311.39737,471.06622C311.39737,471.07556,311.40137,471.09738,311.40628,471.1143C311.41696,471.15082,311.43076,471.23672,311.4352,471.29016C311.44635,471.43307,311.46368,471.50607,311.54474,471.75095C311.6017,471.9219,311.59772,471.90988,311.60483,471.9437C311.6155,471.9949,311.61774,472.04834,311.6097,472.07236C311.60617,472.08395,311.60083,472.1062,311.59772,472.12134C311.58792,472.17654,311.6084,472.32257,311.63065,472.35553C311.6391,472.36798,311.64355,472.3702,311.6645,472.37198C311.6845,472.37378,311.68896,472.376,311.6903,472.38312C311.69565,472.4192,311.70544,472.42987,311.73303,472.42987C311.74997,472.42987,311.75443,472.4281,311.76242,472.4165C311.77356,472.40094,311.78024,472.4027,311.78024,472.42184C311.78024,472.44324,311.7927,472.4597,311.81274,472.4646C311.84613,472.4735,311.85593,472.45657,311.85593,472.39114C311.85593,472.35953,311.85727,472.34927,311.8617,472.35062C311.86838,472.3533,311.8715,472.45258,311.86526,472.47128C311.8617,472.4815,311.86215,472.4873,311.86884,472.5002C311.8813,472.5247,311.8862,472.61774,311.8764,472.6409C311.8724,472.65024,311.86926,472.66226,311.86926,472.6676C311.86926,472.68454,311.88574,472.7255,311.89954,472.74152C311.91736,472.76334,311.92004,472.77356,311.91156,472.7936C311.90176,472.8163,311.88754,472.87863,311.8831,472.91736C311.8804,472.93872,311.87418,472.9601,311.8626,472.98413C311.831,473.05136,311.8154,473.08655,311.7976,473.13107C311.78735,473.15555,311.77533,473.18536,311.77045,473.19785C311.74463,473.25974,311.7068,473.39597,311.6845,473.5028C311.65692,473.63727,311.64044,473.6956,311.6155,473.74677C311.58835,473.80286,311.563,473.8394,311.51935,473.88388C311.47083,473.93375,311.43744,473.95468,311.28607,474.03036C311.07324,474.13678,311.0243,474.1795,310.8342,474.42392C310.74023,474.5446,310.69083,474.60068,310.59332,474.69818C310.52255,474.76895,310.48825,474.79968,310.47046,474.80948L310.44553,474.8224L310.41257,474.81482C310.39478,474.81036,310.3743,474.80725,310.3676,474.80725C310.36093,474.80725,310.34848,474.80457,310.34,474.80103C310.32043,474.79254,310.23807,474.7899,310.21982,474.797C310.1753,474.81436,310.17172,474.81436,310.12943,474.797C310.07867,474.77563,310.06622,474.77563,310.04886,474.797C310.0315,474.81793,310.02258,474.84464,310.01724,474.8914C310.015,474.9114,310.0119,474.9297,310.01056,474.93192C310.00922,474.9341,310.01102,474.94525,310.015,474.9564C310.02036,474.97195,310.0208,474.9791,310.01678,474.9862C310.01367,474.99155,310.0128,475.00314,310.01456,475.01382C310.01636,475.02405,310.01767,475.03964,310.01724,475.04855C310.01724,475.0579,310.02036,475.07034,310.02393,475.07614C310.03015,475.08548,310.0306,475.0895,310.0257,475.10242C310.02258,475.11133,310.0217,475.12112,310.02393,475.126C310.0257,475.13092,310.02838,475.15317,310.02927,475.1763C310.0297,475.19946,310.0328,475.22083,310.03503,475.22394C310.03772,475.22662,310.0386,475.2342,310.03726,475.24042C310.0355,475.24622,310.03772,475.25867,310.0413,475.26804C310.0453,475.27737,310.04752,475.2885,310.04617,475.29297C310.04306,475.30185,310.05017,475.44522,310.0573,475.52625C310.05997,475.55563,310.06577,475.5926,310.07065,475.6086C310.0751,475.62463,310.08224,475.65268,310.08624,475.67093C310.0907,475.68918,310.0978,475.71057,310.10226,475.71814C310.10718,475.7257,310.11072,475.73593,310.11072,475.74084C310.11072,475.74973,310.12408,475.7849,310.13388,475.80228C310.137,475.80716,310.14368,475.82007,310.14948,475.8312C310.17484,475.8806,310.20956,475.9118,310.2443,475.91757C310.26077,475.92026,310.26654,475.91846,310.29193,475.90378C310.332,475.8806,310.3329,475.87708,310.33243,475.7604C310.33243,475.67496,310.33334,475.6647,310.34268,475.63666C310.34802,475.62018,310.35828,475.59882,310.36584,475.5899C310.37695,475.5761,310.3783,475.5712,310.37564,475.55652C310.3734,475.54315,310.37473,475.53647,310.38098,475.52847C310.38586,475.52225,310.3921,475.51157,310.3952,475.50443C310.39835,475.49686,310.40634,475.48395,310.4139,475.4746C310.42105,475.4657,310.42682,475.45322,310.42682,475.44745C310.42682,475.4234,310.4571,475.39224,310.49005,475.38333C310.52966,475.3722,310.5497,475.34326,310.53857,475.31256C310.53012,475.2894,310.53235,475.28406,310.55283,475.27515C310.58664,475.26047,310.6294,475.23196,310.6352,475.21994C310.64276,475.2048,310.6334,475.18167,310.61426,475.16742C310.60712,475.16208,310.59955,475.1545,310.59824,475.15094C310.5969,475.14694,310.60934,475.13046,310.63297,475.106C310.65298,475.08505,310.68192,475.0539,310.69617,475.03653C310.72867,474.9987,310.79947,474.92746,310.82974,474.90207C310.85065,474.8847,310.88403,474.8522,310.90186,474.83173C310.91077,474.8215,310.97485,474.77832,311.0412,474.73825C311.18457,474.65054,311.37866,474.52008,311.43387,474.4738C311.48328,474.43195,311.59995,474.35626,311.6636,474.32465C311.7179,474.2975,311.8185,474.2552,311.82922,474.2552C311.83188,474.2552,311.83722,474.25342,311.84167,474.25073C311.84567,474.2485,311.85992,474.24228,311.8733,474.2374C311.90045,474.22714,311.9552,474.19064,311.97614,474.16928C311.98325,474.16125,312.0144,474.12207,312.04425,474.08157C312.07452,474.04105,312.1128,473.98987,312.13016,473.96805C312.24503,473.82068,312.33853,473.68756,312.3777,473.6141C312.38617,473.59808,312.40308,473.56693,312.41553,473.5451C312.43692,473.5068,312.48898,473.40753,312.60474,473.18448C312.63412,473.12793,312.66086,473.0794,312.66397,473.07587C312.6693,473.07007,312.68134,473.07275,312.75168,473.09277C312.79663,473.10568,312.84827,473.12128,312.86652,473.12662C312.91684,473.14218,313.00098,473.16446,313.02545,473.1689C313.04907,473.1729,313.11496,473.18893,313.13586,473.19562C313.14343,473.19785,313.16748,473.20364,313.1893,473.20898C313.24274,473.22098,313.25964,473.22543,313.32285,473.24237C313.35223,473.25037,313.39142,473.25928,313.40967,473.2624C313.48624,473.27487,313.56503,473.29758,313.6118,473.3207C313.66968,473.34875,313.67413,473.3532,313.67056,473.38126C313.66833,473.4013,313.66656,473.4347,313.65454,473.65195C313.65186,473.70093,313.64786,473.76413,313.64563,473.79218C313.64252,473.8296,313.64294,473.86655,313.64786,473.92798C313.65543,474.0286,313.65942,474.05798,313.67767,474.14612C313.7084,474.29614,313.71198,474.322,313.71686,474.4177C313.7191,474.46176,313.724,474.52988,313.72754,474.56906C313.73245,474.62338,313.73288,474.66345,313.73022,474.73602C313.7253,474.85712,313.72488,474.86023,313.70306,474.86868C313.6817,474.87714,313.6719,474.89673,313.6719,474.93057C313.6719,474.94748,313.66833,474.96307,313.66077,474.9791C313.65497,474.992,313.65097,475.00537,313.6523,475.0089C313.65366,475.01202,313.65274,475.02493,313.6501,475.03653C313.6443,475.06323,313.65143,475.11264,313.66434,475.13715L313.67325,475.1527L313.65942,475.1937C313.65186,475.21594,313.64563,475.2413,313.64563,475.2498C313.64563,475.2965,313.7213,475.31345,313.88828,475.30453C313.91766,475.30276,313.94748,475.29962,313.95505,475.29742C313.9666,475.29385,313.98978,475.29163,314.0797,475.2854C314.0895,475.28452,314.10953,475.28183,314.12424,475.2796C314.13892,475.27695,314.1692,475.2738,314.191,475.27292C314.2965,475.26758,314.37976,475.26135,314.39578,475.25735C314.40558,475.25467,314.42117,475.25244,314.4305,475.25244C314.43942,475.25244,314.4626,475.24844,314.48172,475.2431C314.50043,475.2382,314.53293,475.2293,314.55383,475.2235C314.5997,475.2115,314.65402,475.18433,314.69006,475.1554C314.71857,475.13223,314.72568,475.12112,314.73102,475.09128C314.73593,475.06635,314.73193,475.05255,314.71146,475.02274C314.69675,475.00134,314.69186,474.9978,314.67004,474.99112C314.64777,474.9849,314.63577,474.98444,314.55786,474.98978L314.47058,474.99512L314.44342,474.98087C314.42828,474.9733,314.40292,474.96442,314.3869,474.96173C314.36374,474.95773,314.35352,474.95328,314.33658,474.93948C314.325,474.9297,314.30365,474.91632,314.28894,474.90964C314.26,474.89627,314.2333,474.87448,314.2333,474.86334C314.2333,474.8522,314.248,474.84732,314.28094,474.84732C314.30453,474.84686,314.30942,474.84598,314.3032,474.8424C314.29874,474.83975,314.29074,474.8384,314.28583,474.83975C314.28094,474.8411,314.26846,474.8384,314.25824,474.83395C314.24844,474.82907,314.2324,474.82416,314.2235,474.8228C314.20657,474.82016,314.18433,474.79834,314.18433,474.78497C314.18433,474.77832,314.21637,474.74713,314.23953,474.73157C314.25555,474.72043,314.25955,474.71375,314.25067,474.71375C314.248,474.71375,314.2342,474.7209,314.21994,474.72934C314.1977,474.74268,314.19012,474.7449,314.16162,474.74582L314.12866,474.74713L314.1211,474.732C314.1104,474.71063,314.09616,474.69684,314.0748,474.6875C314.06458,474.68304,314.0552,474.67725,314.0539,474.67502C314.04675,474.66388,314.041,474.56418,314.041,474.45554C314.041,474.33713,314.04276,474.31396,314.05743,474.20844C314.061,474.1813,314.06635,474.14435,314.06903,474.1261C314.07437,474.0869,314.07925,474.03882,314.0864,473.95914C314.09662,473.83582,314.10464,473.74768,314.10953,473.6987C314.11264,473.66663,314.1131,473.62878,314.11087,473.59628C314.10596,473.52817,314.10776,473.33853,314.11353,473.3047C314.1162,473.29,314.1229,473.2624,314.12912,473.24326C314.1536,473.16446,314.13358,473.0794,314.0797,473.03223C314.0659,473.02066,314.03473,472.9846,314.01025,472.9521C313.92343,472.83722,313.84775,472.78024,313.5922,472.6378C313.58374,472.63287,313.5548,472.61685,313.5281,472.6026C313.50137,472.58792,313.4542,472.56076,313.42346,472.54205C313.39276,472.5238,313.33844,472.49307,313.30283,472.4744C313.2672,472.45526,313.20932,472.42453,313.1737,472.4054C313.1381,472.38623,313.09982,472.36575,313.0878,472.36C313.06775,472.34973,313.06198,472.34262,313.04504,472.30743C313.04282,472.30255,313.03214,472.2714,313.02103,472.23843C313.0099,472.20547,312.9974,472.16943,312.99387,472.15875C312.98584,472.13736,312.98584,472.13248,313.00052,472.0136C313.00543,471.97443,313.01346,471.90408,313.01834,471.8578C313.0317,471.72513,313.02637,471.74115,313.07532,471.6846C313.0989,471.65744,313.1332,471.61603,313.151,471.5929C313.16928,471.56973,313.19553,471.53857,313.20932,471.5239C313.22357,471.5092,313.25385,471.47092,313.27655,471.4393C313.326,471.3712,313.37363,471.31552,313.4395,471.2474C313.48492,471.20065,313.4898,471.1971,313.52765,471.1811C313.54993,471.17218,313.57797,471.1588,313.58997,471.15213C313.60245,471.14548,313.61893,471.1388,313.62738,471.137C313.6354,471.13568,313.65143,471.12766,313.663,471.1192C313.67413,471.11118,313.69016,471.10095,313.6986,471.0965C313.71954,471.08624,313.7694,471.04617,313.77475,471.03595C313.7783,471.02972,313.7774,471.0257,313.7703,471.0186C313.7596,471.0079,313.7574,471.0079,313.73468,471.01678C313.72443,471.0208,313.7151,471.02304,313.71375,471.02124C313.70975,471.01724,313.71954,471.00076,313.736,470.98297C313.75558,470.96204,313.76273,470.9496,313.7743,470.91885C313.77963,470.90417,313.78766,470.88724,313.79254,470.88058C313.8059,470.86188,313.80814,470.84717,313.79834,470.83737C313.77875,470.81735,313.77875,470.8169,313.7881,470.7902C313.79654,470.7666,313.79654,470.76392,313.7899,470.75012C313.7832,470.73587,313.7832,470.7341,313.79434,470.7105C313.8099,470.678,313.8099,470.6593,313.79434,470.65308C313.77875,470.64728,313.7694,470.6535,313.73868,470.68958C313.66388,470.7764,313.6238,470.80978,313.56238,470.8356C313.51163,470.85742,313.49426,470.8525,313.49426,470.81647C313.49426,470.80222,313.5005,470.78485,313.51965,470.74655C313.5428,470.70114,313.54547,470.6927,313.54547,470.6682C313.54547,470.64774,313.54324,470.63837,313.5379,470.6326C313.5183,470.613,313.4867,470.64816,313.45377,470.72696C313.44305,470.75146,313.4288,470.78128,313.42123,470.79376C313.407,470.81647,313.4039,470.82315,313.38785,470.8583C313.38297,470.86945,313.37317,470.88815,313.3665,470.9006C313.34424,470.93933,313.3371,470.96338,313.33978,470.99142C313.34244,471.02347,313.3371,471.0386,313.30505,471.0907C313.26633,471.1526,313.20398,471.2265,313.16748,471.25363C313.14078,471.27368,313.14032,471.2639,313.1666,471.2216C313.20932,471.15213,313.21823,471.12543,313.21823,471.06354C313.21823,471.019,313.2089,470.96918,313.1893,470.90952C313.18573,470.89972,313.1822,470.86765,313.18085,470.8383C313.17773,470.76526,313.16928,470.7185,313.1479,470.65665C313.1234,470.58585,313.1105,470.56937,313.0526,470.53375C312.98584,470.49234,312.95023,470.46518,312.92395,470.43494L312.90082,470.4082L312.90436,470.35834C312.9088,470.284,312.91727,470.23724,312.93375,470.19272C312.95734,470.12775,312.98273,470.10815,313.03748,470.1135C313.0553,470.1148,313.07132,470.11215,313.1114,470.0997C313.18307,470.07788,313.18842,470.0703,313.17593,470.00888C313.17328,469.99728,313.17505,469.99152,313.1844,469.9795C313.1973,469.96255,313.1982,469.95587,313.19107,469.93942C313.1866,469.93005,313.18753,469.9265,313.1973,469.9145C313.20844,469.90112,313.2089,469.90067,313.20267,469.87976C313.19153,469.8437,313.1933,469.83746,313.22046,469.8143C313.2543,469.78537,313.2543,469.77423,313.21912,469.73328C313.2049,469.71637,313.1866,469.69366,313.17862,469.6821L313.16348,469.66116L313.1666,469.60953C313.17017,469.55075,313.16705,469.53384,313.1372,469.46527L313.11896,469.42386L313.1372,469.4083C313.14746,469.39984,313.1559,469.39047,313.1559,469.38824C313.1559,469.3856,313.1497,469.36777,313.14212,469.3491C313.1301,469.31836,313.12564,469.31213,313.09982,469.29208C313.08423,469.27917,313.0611,469.26404,313.0486,469.2578C313.0366,469.2516,313.0219,469.24133,313.01657,469.2351C313.00232,469.2182,312.97604,469.20795,312.93375,469.2026C312.8861,469.19638,312.78195,469.19727,312.71292,469.20438 Z M312.0959,470.88593C312.103,470.90906,312.10925,470.93845,312.1257,471.03415C312.1342,471.08313,312.14395,471.13834,312.14752,471.1566C312.15152,471.17484,312.15732,471.2069,312.1609,471.2278C312.17245,471.29462,312.1836,471.3409,312.19116,471.35248C312.19916,471.36496,312.2201,471.44107,312.2361,471.5172C312.24414,471.5564,312.24548,471.57108,312.24237,471.58353C312.2397,471.592,312.23923,471.60938,312.24103,471.62183C312.24237,471.63385,312.24414,471.67215,312.24457,471.70642C312.24503,471.7674,312.24503,471.7692,312.23077,471.80212C312.21118,471.84753,312.20184,471.86447,312.16446,471.92056C312.10434,472.0118,312.09232,472.0314,312.07986,472.06036C312.07318,472.0764,312.05804,472.10666,312.04648,472.12802C312.03445,472.14896,312.0251,472.16898,312.0251,472.17255C312.0251,472.18146,312.01218,472.19836,312.00552,472.19836C312.00238,472.19836,311.9948,472.19125,311.9886,472.18234C311.98236,472.1739,311.96143,472.15027,311.94183,472.13025C311.8933,472.07993,311.85593,472.03452,311.84836,472.01672C311.8448,472.00827,311.839,471.974,311.83545,471.94058C311.83188,471.9072,311.82654,471.87292,311.8243,471.86447C311.81763,471.8422,311.79803,471.76697,311.79358,471.74872C311.7918,471.74026,311.78513,471.7131,311.7789,471.6886C311.7602,471.6156,311.75354,471.5506,311.75085,471.42593C311.7495,471.36227,311.74594,471.28525,311.7424,471.25455C311.72903,471.13922,311.72638,471.10895,311.7295,471.10184C311.7308,471.09784,311.74152,471.09027,311.75262,471.08493C311.8083,471.05865,311.9819,470.9496,312.03177,470.90906C312.05447,470.8908,312.0834,470.87167,312.08786,470.87167C312.08966,470.87167,312.0932,470.87836,312.0959,470.88593 Z"/> </g> <g style="fill:rgb(0,0,0); fill-opacity:1.0; stroke-linejoin: miter"> <path d="M311.94675,470.29514C311.94006,470.2996,311.9396,470.30225,311.94363,470.3067C311.94986,470.3134,311.96277,470.30893,311.96277,470.30002C311.96277,470.29022,311.9561,470.288,311.94675,470.29514 Z"/> </g> </g> <g> <g style="fill:rgb(0,0,0); fill-opacity:1.0; stroke-linejoin: miter"> <path d="M316.38623,470.68024C316.38525,470.68027,316.38406,470.68066,316.38297,470.68146C316.37915,470.6835,316.3767,470.68875,316.37686,470.69202C316.37695,470.69452,316.37805,470.69562,316.37985,470.69553C316.38083,470.6955,316.38208,470.6951,316.38342,470.69434C316.38657,470.69226,316.38962,470.687,316.3895,470.68375C316.38943,470.68127,316.38803,470.68018,316.38623,470.68024 Z M316.37668,470.70447C316.37546,470.7045,316.37216,470.71063,316.36264,470.7275L316.35236,470.74728L316.36475,470.73132C316.37216,470.7226,316.37762,470.7127,316.37747,470.70883C316.37738,470.70615,316.37732,470.70447,316.37668,470.70447 Z M316.33887,470.77063C316.3371,470.7707,316.3346,470.77423,316.33224,470.7811C316.3309,470.78513,316.33102,470.78757,316.33292,470.7875C316.33347,470.7875,316.3342,470.78726,316.33505,470.7868C316.33887,470.7847,316.34128,470.78012,316.34113,470.7762C316.341,470.77237,316.34012,470.77054,316.33887,470.77063 Z M316.32687,470.79694C316.32513,470.797,316.32263,470.80057,316.32025,470.80743C316.3189,470.81146,316.31903,470.8139,316.32092,470.81384C316.3215,470.81384,316.3222,470.8136,316.32306,470.81314C316.3269,470.81107,316.32928,470.80643,316.32916,470.80255C316.329,470.7987,316.32813,470.79688,316.32687,470.79694 Z M316.31433,470.8243C316.31393,470.8243,316.31354,470.82462,316.31314,470.82513C316.31128,470.82715,316.31088,470.833,316.31296,470.8375C316.31378,470.83945,316.31454,470.84033,316.31522,470.8403C316.3162,470.84027,316.3169,470.83783,316.3167,470.83347C316.31702,470.82785,316.31573,470.82428,316.31433,470.8243 Z M312.08682,475.86325C312.08,475.86346,312.06976,475.8685,312.0611,475.87704C312.05362,475.8844,312.05002,475.89233,312.0521,475.89484C312.053,475.8955,312.05386,475.89584,312.0546,475.89584C312.05582,475.8958,312.05655,475.8946,312.0565,475.89212C312.05634,475.88824,312.0646,475.8834,312.0755,475.8804C312.08575,475.87808,312.09467,475.8732,312.0945,475.86932C312.09436,475.86496,312.0913,475.86307,312.08682,475.86325 Z M311.96048,476.0977L311.94916,476.124C311.94257,476.1385,311.93555,476.1582,311.93396,476.16794C311.9318,476.17905,311.93268,476.1861,311.93655,476.18594C311.94498,476.18564,311.95493,476.1568,311.95822,476.1237L311.96048,476.0977 Z M314.88474,469.5565C314.90973,469.55557,314.93552,469.55658,314.9555,469.5598C315.08127,469.58102,315.12064,469.5951,315.19635,469.646C315.2681,469.69455,315.2768,469.702,315.31024,469.74863C315.3396,469.789,315.34317,469.79794,315.34656,469.83667C315.3505,469.8734,315.34885,469.88126,315.33765,469.89267C315.32574,469.9048,315.32465,469.90997,315.33047,469.94412C315.33383,469.96472,315.3369,470.01315,315.33774,470.052C315.33905,470.1219,315.33286,470.14737,315.3016,470.19516C315.29547,470.20444,315.29642,470.2128,315.30707,470.23706C315.33392,470.29883,315.32983,470.32748,315.29028,470.34384C315.28262,470.34735,315.27332,470.35742,315.2704,470.3666C315.2675,470.3758,315.25754,470.3865,315.24924,470.39005C315.23712,470.39505,315.23288,470.40295,315.23032,470.4212C315.2289,470.43484,315.22522,470.45825,315.2219,470.4733C315.2192,470.48828,315.21756,470.51425,315.2182,470.5317C315.2205,470.59177,315.19415,470.62405,315.1433,470.62592C315.1235,470.62668,315.09995,470.62274,315.07297,470.61414C315.03506,470.60242,314.9942,470.59653,314.96384,470.59763C314.95068,470.59814,314.9395,470.59995,314.9314,470.6032C314.8995,470.61545,314.86572,470.68152,314.85776,470.74655C314.85382,470.77972,314.85452,470.78162,314.87387,470.79645C314.88455,470.80515,314.90768,470.8185,314.9242,470.82632C314.9921,470.8587,315.0506,470.90057,315.0945,470.94946C315.1898,471.0554,315.21756,471.10614,315.2541,471.23627C315.26456,471.27408,315.2757,471.31122,315.27786,471.3176C315.28003,471.324,315.29428,471.3416,315.30972,471.3559C315.36743,471.4108,315.36884,471.41333,315.3653,471.44C315.3628,471.46017,315.36575,471.46912,315.38278,471.49243C315.39438,471.5082,315.40402,471.52405,315.40414,471.52725C315.4043,471.53116,315.4195,471.5565,315.43866,471.58426C315.45715,471.61142,315.47363,471.63675,315.47507,471.63992C315.47537,471.64075,315.47678,471.64108,315.479,471.64096C315.49216,471.6405,315.53375,471.62567,315.5467,471.6152C315.54977,471.61252,315.5715,471.60397,315.59454,471.59598C315.61752,471.58798,315.6545,471.57303,315.67743,471.56244C315.70038,471.55252,315.73163,471.5391,315.7476,471.53265C315.76352,471.52692,315.78888,471.51108,315.80457,471.49753C315.866,471.4434,316.0473,471.23456,316.04666,471.21777C316.04648,471.21262,316.03726,471.17407,316.02667,471.13113C316.01147,471.07083,316.0079,471.0438,316.00995,471.01196C316.0133,470.96387,315.99713,470.9127,315.97244,470.89224C315.96375,470.8854,315.95615,470.87274,315.95587,470.865C315.95523,470.8475,315.9772,470.82925,315.99985,470.8284C316.02377,470.82755,316.073,470.84448,316.08313,470.85638C316.10745,470.88397,316.1138,470.8967,316.1187,470.925L316.12436,470.95526L316.1493,470.92908C316.17236,470.90488,316.21225,470.82767,316.22174,470.7878C316.2268,470.7669,316.2703,470.68234,316.29428,470.64713C316.30655,470.62985,316.32095,470.617,316.3344,470.61264C316.341,470.61038,316.34583,470.609,316.34985,470.60886C316.3575,470.60858,316.36243,470.61264,316.3717,470.6229C316.3805,470.6323,316.38818,470.64755,316.38852,470.6566C316.3888,470.6639,316.38907,470.66794,316.39105,470.66788C316.39368,470.6678,316.3992,470.66083,316.4114,470.64542C316.4285,470.62418,316.4344,470.61877,316.45032,470.6182C316.45343,470.61807,316.45688,470.61813,316.4609,470.6183C316.48557,470.61932,316.48822,470.6212,316.49417,470.6417C316.5001,470.6622,316.4972,470.67136,316.46658,470.73593C316.44797,470.77548,316.43362,470.80838,316.435,470.8103C316.43506,470.81033,316.43512,470.81033,316.4352,470.81033C316.4377,470.81024,316.4502,470.78888,316.46362,470.76132C316.4949,470.69678,316.50357,470.68668,316.5262,470.68582L316.52628,470.68582C316.5741,470.6841,316.56363,470.7693,316.5054,470.8569C316.49557,470.87152,316.48767,470.88602,316.4878,470.88864C316.48788,470.8912,316.48004,470.90707,316.46964,470.923C316.44275,470.96613,316.43707,470.98703,316.4485,470.9983C316.4515,471.00095,316.4551,471.00226,316.45947,471.00204C316.47552,471.00143,316.50177,470.9812,316.5459,470.93634C316.5816,470.9003,316.59247,470.89157,316.6069,470.89102C316.6086,470.89096,316.61038,470.891,316.61224,470.89114C316.6369,470.89218,316.64868,470.91376,316.64264,470.9431C316.63657,470.97183,316.56595,471.04114,316.5158,471.06827C316.48218,471.08633,316.46835,471.09787,316.45993,471.11508C316.4533,471.12823,316.44415,471.1435,316.43915,471.14886C316.42365,471.16626,316.39542,471.20877,316.3993,471.20862C316.4012,471.20853,316.3976,471.21518,316.39014,471.2232C316.3833,471.23123,316.37778,471.23984,316.3779,471.24243C316.378,471.24503,316.3719,471.25494,316.36383,471.26498C316.33786,471.29834,316.3252,471.31366,316.32266,471.31372C316.3224,471.31372,316.32224,471.31357,316.32224,471.31314C316.32224,471.31308,316.3222,471.31302,316.3221,471.31302C316.31857,471.31314,316.24075,471.39896,316.22083,471.42566C316.19986,471.45428,316.14063,471.54913,316.12125,471.58612C316.1122,471.6039,316.08206,471.6465,316.0542,471.6812C316.02704,471.71594,315.99985,471.75122,315.99435,471.7599C315.9895,471.76846,315.96155,471.80124,315.93295,471.83273C315.91318,471.8549,315.8959,471.8761,315.8869,471.8888L315.88684,471.8888L315.80936,471.97397L315.8093,471.97397C315.79358,471.98755,315.76108,472.0185,315.7374,472.0427C315.71304,472.06686,315.66907,472.1048,315.6382,472.12665C315.6079,472.14847,315.58334,472.16818,315.58347,472.17075C315.58356,472.17337,315.5729,472.18213,315.55893,472.19046C315.5435,472.19986,315.53012,472.20526,315.51614,472.20584C315.4881,472.20688,315.45718,472.1886,315.40125,472.1446C315.37857,472.12668,315.34927,472.1044,315.3366,472.09583C315.32465,472.08655,315.30573,472.06842,315.29553,472.05457C315.2853,472.04135,315.23697,471.9952,315.18744,471.95236C315.13797,471.91013,315.06616,471.84222,315.0271,471.80225C314.9887,471.7622,314.95178,471.7273,314.94525,471.72562C314.93344,471.72217,314.88138,471.66324,314.87357,471.6441C314.87094,471.6383,314.86844,471.63538,314.86578,471.6355C314.86203,471.63565,314.85806,471.64185,314.8532,471.65454C314.84848,471.66574,314.83264,471.6929,314.81726,471.7148C314.80255,471.73672,314.7753,471.78824,314.75797,471.8284C314.74008,471.8686,314.72327,471.90292,314.72073,471.90494C314.71255,471.91168,314.69455,471.94995,314.6949,471.95966C314.69507,471.9648,314.68506,471.99106,314.67242,472.0181C314.65985,472.0451,314.64493,472.07867,314.63962,472.0931C314.63367,472.1076,314.62234,472.13138,314.61444,472.14594C314.6059,472.1605,314.59082,472.1902,314.58063,472.2119C314.57043,472.23367,314.5528,472.26474,314.5418,472.2814C314.51602,472.31927,314.50644,472.35785,314.4938,472.47162C314.4811,472.58218,314.4831,472.60153,314.5053,472.60718C314.51447,472.6094,314.5498,472.6191,314.58377,472.6282C314.6178,472.6379,314.6648,472.6472,314.68817,472.6489C314.73358,472.65176,314.8527,472.6843,314.9269,472.71326C314.95187,472.7227,314.98596,472.73438,315.00232,472.73825C315.02023,472.74286,315.02744,472.7461,315.02963,472.75195L315.02972,472.75192Q315.41138,472.87796,315.5659,472.97778Q315.7391,473.08142,315.73764,473.24405Q315.7372,473.37656,315.64133,473.5473Q315.3712,474.00116,315.04242,474.43207Q315.0021,474.49417,314.91867,474.7129L314.91876,474.7129C314.92075,474.71533,314.92233,474.71664,314.92383,474.7166C314.927,474.71646,314.9299,474.71027,314.93582,474.69516C314.94888,474.66296,315.00986,474.5953,315.026,474.5947C315.02988,474.59457,315.03238,474.59125,315.03223,474.58798C315.0321,474.5841,315.03912,474.58127,315.04816,474.58093C315.0604,474.5804,315.0644,474.5835,315.06482,474.59512C315.0653,474.60806,315.04684,474.63278,315.0365,474.63315C315.03067,474.6334,315.009,474.66074,315.00928,474.66718C315.00937,474.66977,315.00574,474.6764,315.00137,474.68106C314.98892,474.6945,314.9564,474.76044,314.9532,474.77872C314.94827,474.80414,314.9703,474.83893,314.99176,474.84073C315.0015,474.84167,315.00812,474.84534,315.0063,474.84863C315.0038,474.85193,315.01236,474.85422,315.02527,474.85373C315.03754,474.85327,315.04846,474.85095,315.04965,474.84766C315.0526,474.84042,315.12866,474.81302,315.17554,474.80286C315.19174,474.79932,315.2019,474.7973,315.20908,474.79703C315.2179,474.7967,315.22223,474.799,315.22742,474.80414C315.233,474.80936,315.23468,474.81302,315.2323,474.8131C315.2321,474.81314,315.23187,474.8131,315.23163,474.81305C315.22894,474.8128,315.2265,474.81268,315.2245,474.81277C315.2165,474.81308,315.21463,474.81607,315.22153,474.81992C315.23083,474.8254,315.23145,474.8254,315.14893,474.85242C315.1278,474.85968,315.0985,474.87305,315.0833,474.88266C315.0672,474.8928,315.05624,474.8969,315.0431,474.89737C315.03925,474.89752,315.03516,474.89734,315.03076,474.8969L315.0054,474.89462L315.01575,474.91107C315.02127,474.92056,315.03497,474.94077,315.0459,474.95657C315.05826,474.9749,315.06607,474.99405,315.06668,475.01086C315.06787,475.02505,315.0746,475.0481,315.0816,475.06274C315.09555,475.0901,315.15045,475.13855,315.17395,475.14352C315.1825,475.14578,315.1891,475.1494,315.1892,475.15265C315.18933,475.1559,315.1939,475.15833,315.1991,475.15814C315.20428,475.15796,315.2089,475.16034,315.20905,475.1642C315.2092,475.16745,315.21512,475.1705,315.22223,475.17023C315.22934,475.16998,315.23523,475.17233,315.23538,475.1762C315.2355,475.17944,315.24146,475.18246,315.24857,475.18216C315.25568,475.18192,315.2616,475.1843,315.26172,475.18756C315.26196,475.194,315.32938,475.21475,315.3665,475.21982C315.41074,475.22598,315.43652,475.25745,315.43164,475.29968C315.42813,475.32703,315.40555,475.3641,315.3913,475.36462C315.38806,475.36475,315.38492,475.3675,315.38504,475.37006C315.3855,475.38272,315.26935,475.3974,315.1881,475.40036C315.149,475.40182,315.11795,475.40057,315.11206,475.3951C315.10803,475.3914,315.09238,475.3887,315.07684,475.38928C315.06137,475.38986,315.04895,475.3871,315.0488,475.38385C315.04868,475.37997,315.03693,475.37778,315.02335,475.37833C315.0078,475.37888,314.9967,475.37607,314.99457,475.37033C314.99243,475.3652,314.96948,475.35767,314.9434,475.3521C314.9173,475.34726,314.87802,475.3358,314.85626,475.3262C314.83395,475.31674,314.8057,475.3068,314.79337,475.3053C314.78094,475.3032,314.76724,475.2998,314.7639,475.2973C314.75995,475.2949,314.74097,475.28976,314.7214,475.28592C314.70184,475.28214,314.67502,475.27472,314.66245,475.26868C314.64996,475.2633,314.62634,475.25516,314.61,475.25122C314.59366,475.24664,314.5792,475.24133,314.57718,475.23944C314.57312,475.23447,314.50424,475.21173,314.46567,475.2015C314.44934,475.1976,314.4218,475.18887,314.40472,475.18182C314.38702,475.17535,314.36865,475.16956,314.36346,475.16974C314.35834,475.16992,314.3543,475.16684,314.3542,475.1636C314.35406,475.15973,314.34814,475.15738,314.34036,475.15765C314.33325,475.1579,314.32928,475.1555,314.3311,475.15152C314.33292,475.1482,314.33023,475.14508,314.32504,475.14526C314.3192,475.14548,314.3145,475.1424,314.31442,475.1392C314.3143,475.1353,314.30966,475.13287,314.30447,475.13306C314.29932,475.13324,314.29468,475.13022,314.29456,475.12698C314.2944,475.1231,314.29108,475.1206,314.2872,475.12076C314.27298,475.12128,314.23434,475.0754,314.23364,475.0567C314.23343,475.05087,314.23764,475.04163,314.24258,475.0363C314.26563,475.0108,314.3134,474.93655,314.33688,474.88907C314.34476,474.87326,314.35358,474.85626,314.36108,474.84238L314.361,474.84238L314.4651,474.7126L314.46497,474.7126C314.4856,474.71115,314.48898,474.70615,314.51263,474.66943C314.52795,474.6462,314.54193,474.62048,314.54422,474.61325C314.54587,474.6054,314.55023,474.59943,314.55344,474.59933C314.55667,474.5992,314.56097,474.59317,314.56265,474.586C314.5643,474.57883,314.5698,474.5689,314.57355,474.56485C314.58658,474.55014,314.6187,474.49127,314.62872,474.46436C314.63397,474.44986,314.64786,474.4228,314.65942,474.40356C314.67105,474.3844,314.6838,474.3619,314.68677,474.35403C314.69803,474.3264,314.71255,474.29868,314.71695,474.29526C314.72263,474.29117,314.81387,474.09677,314.8244,474.06723C314.8279,474.05673,314.8363,474.03833,314.843,474.02643C314.85574,474.00394,314.8777,473.91504,314.87683,473.8911C314.8762,473.8743,314.8966,473.78024,314.90445,473.76505C314.90747,473.75912,314.914,473.74203,314.91928,473.72757C314.93985,473.6718,314.95377,473.64407,315.00006,473.56598C315.02383,473.52625,315.02444,473.52557,315.04733,473.49625C315.05597,473.4849,315.07144,473.46494,315.08127,473.4516L315.09637,473.4315L315.09628,473.43152Q315.04114,473.44913,314.99884,473.45865Q314.89114,473.48434,314.75748,473.48935Q314.75287,473.48953,314.74826,473.48965Q314.57492,473.49527,314.35165,473.47992L314.35175,473.47992C314.32727,473.48044,314.30975,473.4792,314.30545,473.4766L314.30557,473.4766Q314.24088,473.4716,314.17224,473.46494Q314.1664,473.46436,314.16013,473.4637L314.16006,473.4637Q314.1253,473.54456,314.0436,473.66513Q313.9821,473.76364,313.50897,474.35733Q313.5068,474.3592,313.50323,474.36383L313.50333,474.36383C313.49496,474.37527,313.4898,474.38297,313.48984,474.38425C313.48993,474.3862,313.48636,474.39136,313.4809,474.39764L313.48102,474.3976Q313.44482,474.4569,313.36697,474.60083Q313.33902,474.64597,313.30984,474.67886Q313.2827,474.7102,313.24765,474.73282Q313.2312,474.74652,313.13705,474.7802Q313.11313,474.79245,313.07846,474.8214Q312.77686,475.105,312.38593,475.43585Q312.21103,475.58295,312.05215,475.82166L312.05215,475.82166C312.06354,475.81683,312.07242,475.81424,312.08057,475.81393C312.09045,475.8136,312.09924,475.81653,312.11023,475.8227C312.15063,475.84586,312.14758,475.88678,312.1034,475.91693C312.0883,475.92783,312.07462,475.94388,312.06808,475.96097C312.06216,475.97543,312.05353,475.98737,312.04837,475.98755C312.03806,475.98795,312.00943,476.0201,312.00986,476.0311C312.00995,476.03433,312.0079,476.06616,312.00595,476.10052C312.00198,476.16803,311.98856,476.20804,311.96396,476.2264C311.9578,476.231,311.94904,476.23346,311.94006,476.23376C311.929,476.2342,311.91757,476.23132,311.91016,476.22516C311.90607,476.22134,311.90262,476.2196,311.90012,476.21973C311.89566,476.21988,311.89413,476.22577,311.89697,476.23602C311.9022,476.25333,311.88998,476.29196,311.87442,476.30872C311.85886,476.3255,311.85718,476.35016,311.8673,476.41452C311.87405,476.4564,311.88223,476.4852,311.89407,476.5068C311.91345,476.54037,311.9341,476.60828,311.93533,476.64124C311.9361,476.66257,311.92407,476.68765,311.90524,476.70325C311.9002,476.70795,311.87903,476.7126,311.85898,476.71338C311.82343,476.71466,311.82144,476.71408,311.77664,476.67624C311.75195,476.65457,311.7239,476.63165,311.71457,476.62485C311.6893,476.60638,311.66473,476.573,311.6396,476.52405C311.62704,476.49927,311.61465,476.479,311.61133,476.4778C311.60803,476.47662,311.60526,476.4709,311.60504,476.4651C311.60483,476.45926,311.59912,476.44525,311.59225,476.43515C311.58542,476.42438,311.574,476.39764,311.56668,476.37457C311.55875,476.35156,311.5458,476.31836,311.5368,476.3012C311.5277,476.28342,311.51678,476.2508,311.512,476.22766C311.50665,476.20456,311.49835,476.17313,311.49255,476.15714C311.48746,476.14114,311.47906,476.1065,311.47482,476.0801C311.4706,476.05374,311.45792,476.00885,311.44785,475.98074C311.43707,475.95264,311.4249,475.92072,311.42123,475.91046C311.37955,475.79874,311.35693,475.6797,311.3661,475.61267L311.3716,475.56842L311.4388,475.56467C311.47818,475.56186,311.51678,475.55588,311.53275,475.5501C311.5366,475.54846,311.54224,475.5468,311.54898,475.5451L311.54886,475.5451Q311.55106,475.5449,311.5537,475.5445L311.569,475.5413L311.58002,475.5404Q311.58362,475.5409,311.59113,475.5406Q311.59213,475.54056,311.59323,475.5405L311.5983,475.54095Q311.59906,475.5409,311.60013,475.54086Q311.6044,475.54068,311.61325,475.54147L311.63626,475.541L311.64194,475.54126Q311.6557,475.54025,311.65805,475.53955L311.66156,475.5388L311.6672,475.53683Q311.6765,475.5347,311.67755,475.5341Q311.68497,475.53134,311.68643,475.52878L311.79803,475.50125Q311.79935,475.49973,311.80032,475.49814L311.8002,475.49814C311.80078,475.49808,311.80145,475.49805,311.8022,475.49805C311.8077,475.4978,311.9872,475.3061,312.1056,475.1762L312.1057,475.1762Q312.35214,474.78842,312.4869,474.6522Q312.61713,474.5152,312.79337,474.41843L312.79346,474.41843C312.7993,474.41394,312.807,474.40863,312.8139,474.40488C312.81903,474.4021,312.82504,474.39642,312.83133,474.3888L312.83145,474.3888Q312.94598,474.09344,313.1812,473.65417L313.1813,473.65417C313.1855,473.64084,313.19278,473.62268,313.20355,473.599C313.22098,473.56207,313.24393,473.5172,313.25494,473.49997C313.26593,473.48273,313.27438,473.46622,313.2743,473.46298C313.27414,473.4591,313.27594,473.45514,313.27847,473.45374C313.28165,473.45236,313.29337,473.4351,313.3049,473.41522C313.3123,473.40268,313.31705,473.39438,313.32004,473.38626L313.32016,473.38626Q313.29837,473.30032,313.28714,473.2513Q313.2648,473.15482,313.25452,473.0863Q313.25204,473.07083,313.2501,473.05582L313.2502,473.05582C313.2499,473.05396,313.24957,473.05206,313.24924,473.05014C313.2486,473.04617,313.24808,473.04153,313.24768,473.03635L313.24777,473.03635Q313.23767,472.94366,313.24838,472.8697Q313.25406,472.828,313.26794,472.78555L313.26807,472.78555C313.27005,472.77673,313.27213,472.7693,313.27423,472.76364C313.27524,472.76102,313.27658,472.75867,313.2782,472.75668L313.27832,472.75665Q313.29117,472.72363,313.309,472.69016Q313.31674,472.66443,313.50192,472.38718Q313.53992,472.3249,313.5684,472.2629Q313.6223,472.1486,313.662,471.96585Q313.68652,471.84705,313.70212,471.75204L313.70224,471.75204C313.70828,471.70883,313.7125,471.67352,313.71262,471.66464C313.71216,471.65234,313.7157,471.62436,313.72003,471.60287C313.72205,471.59366,313.72382,471.58438,313.72543,471.57498L313.72552,471.57495Q313.72794,471.54694,313.72894,471.52286Q313.74014,471.40863,313.70047,470.81018L313.7006,470.81018L313.68723,470.80878C313.67493,470.80728,313.62814,470.80325,313.58334,470.7997C313.53848,470.79553,313.49292,470.78946,313.48242,470.7853C313.47125,470.78122,313.43027,470.7756,313.3913,470.77252C313.26202,470.7624,313.19614,470.74872,313.1315,470.71744C313.1112,470.70755,313.10178,470.70395,313.08133,470.7047C313.07187,470.70505,313.06006,470.70633,313.0437,470.70837C312.94635,470.7191,312.91495,470.72806,312.83792,470.7646C312.76666,470.79834,312.74237,470.80634,312.66525,470.8234C312.64603,470.82736,312.62805,470.83258,312.62552,470.83395C312.623,470.83603,312.57208,470.8424,312.51205,470.8479C312.39395,470.85934,312.34506,470.86768,312.2914,470.88596C312.22748,470.9071,312.16687,470.93265,312.1626,470.93997C312.16083,470.94452,312.13806,470.95895,312.11264,470.97223C312.0695,470.99582,312.06638,470.99918,312.0578,471.02994C312.0383,471.09744,311.98206,471.16943,311.92426,471.2007C311.90018,471.21393,311.87753,471.23285,311.86145,471.2529C311.82892,471.29578,311.81134,471.30914,311.78824,471.31003C311.7877,471.31003,311.7871,471.31006,311.7865,471.31003C311.7606,471.3104,311.74966,471.29526,311.74826,471.25708C311.74698,471.22217,311.76437,471.18524,311.79388,471.1602C311.80328,471.15277,311.80823,471.14615,311.80505,471.1462L311.80493,471.1462C311.79,471.14685,311.75256,471.18384,311.7113,471.23837C311.67838,471.28238,311.6605,471.30093,311.64465,471.30154C311.63647,471.30182,311.62885,471.29736,311.61996,471.28906C311.60388,471.27414,311.60275,471.26187,311.61517,471.24783C311.6208,471.24243,311.62662,471.22473,311.6293,471.2091C311.63245,471.1889,311.6402,471.17178,311.6564,471.15436C311.67987,471.12863,311.69037,471.11218,311.6857,471.11218L311.68558,471.1122C311.6831,471.11237,311.67676,471.1167,311.66638,471.12613C311.65195,471.13898,311.6312,471.1559,311.62054,471.16473C311.6098,471.1729,311.59097,471.18915,311.5791,471.19995C311.56442,471.21338,311.546,471.22098,311.5318,471.22147C311.52173,471.22183,311.5138,471.2187,311.51086,471.21152C311.50922,471.2076,311.508,471.20358,311.50714,471.19955L311.50726,471.19955Q311.50668,471.19952,311.50607,471.1995Q311.50192,471.1995,311.50128,471.1963Q311.50082,471.19284,311.50067,471.18845Q311.50137,471.1772,311.5009,471.16724Q311.5021,471.1563,311.5072,471.14838L311.52023,471.12714L311.5397,471.10913L311.5615,471.0846Q311.56442,471.08145,311.56757,471.07852L311.57983,471.0676Q311.59216,471.05844,311.6013,471.0502L311.60117,471.0502Q311.58987,471.05435,311.5769,471.058L311.57706,471.058C311.5735,471.06097,311.56992,471.06418,311.56638,471.0676C311.5527,471.08066,311.54144,471.08722,311.5307,471.08762C311.52368,471.08786,311.51694,471.08554,311.50986,471.0807C311.4952,471.07025,311.49515,471.06833,311.50357,471.0505C311.50574,471.04575,311.5075,471.041,311.50864,471.037L311.5088,471.03696Q311.50726,471.02347,311.5081,471.01886Q311.50836,471.01563,311.50937,471.01263L311.5152,470.9999Q311.52365,470.97754,311.5241,470.9728Q311.52853,470.96625,311.53857,470.95428L311.56055,470.92184L311.56607,470.9147Q311.56818,470.9121,311.57632,470.90588L311.60788,470.88156L311.608,470.88156C311.60938,470.86548,311.62332,470.8421,311.63504,470.84167C311.64087,470.84146,311.66776,470.83334,311.6933,470.82333C311.71884,470.81332,311.74576,470.80518,311.75284,470.8049C311.75998,470.8047,311.7708,470.80038,311.77585,470.7957C311.78763,470.78473,311.8503,470.76096,311.8784,470.7557L311.8785,470.75568Q311.87878,470.7555,311.87906,470.7553Q311.88144,470.7537,311.88947,470.74988L311.8945,470.74698Q311.90073,470.74442,311.91083,470.7436L311.91095,470.7436C311.91168,470.74283,311.91235,470.74203,311.91296,470.74127C311.91852,470.73456,311.94193,470.7188,311.9641,470.70633C311.98956,470.69217,312.00235,470.6866,312.0164,470.6861C312.0209,470.68594,312.02554,470.68628,312.03076,470.68704C312.03394,470.6874,312.0373,470.68753,312.04092,470.68738C312.06708,470.6864,312.10605,470.6723,312.17084,470.63977C312.1855,470.63275,312.20078,470.62637,312.20465,470.62622C312.20853,470.62607,312.2359,470.61273,312.26642,470.59738C312.36227,470.54706,312.3718,470.54285,312.40387,470.53452C312.4212,470.53,312.44104,470.5228,312.44797,470.51865C312.45496,470.5145,312.47537,470.50726,312.49335,470.50208C312.5113,470.4969,312.54578,470.48392,312.57065,470.47333C312.59488,470.4627,312.63126,470.44907,312.65048,470.44318C312.6697,470.4373,312.68884,470.42944,312.69196,470.42673C312.70453,470.41525,312.80048,470.3845,312.83914,470.37915C312.86038,470.37582,312.89127,470.37012,312.90732,470.36627C312.91757,470.36365,312.929,470.36212,312.94202,470.36157C312.95502,470.3611,312.96964,470.3617,312.9862,470.36334C312.99957,470.3647,313.01566,470.36493,313.0336,470.36426C313.10663,470.36157,313.21136,470.3435,313.29663,470.31754C313.33765,470.305,313.40637,470.2895,313.43155,470.2879C313.43466,470.2877,313.43826,470.28754,313.44223,470.28738C313.49484,470.28546,313.61545,470.28857,313.6318,470.29272C313.63687,470.294,313.64484,470.29443,313.65448,470.29407C313.68256,470.29303,313.72467,470.28564,313.74844,470.27612C313.7784,470.26425,313.88202,470.2459,313.92587,470.24426C313.9268,470.24423,313.9277,470.2442,313.9286,470.2442C314.04312,470.24127,314.0782,470.24637,314.13892,470.2765C314.18573,470.29938,314.26425,470.32108,314.3104,470.32452C314.32272,470.32538,314.34222,470.32788,314.3533,470.32944C314.35806,470.33023,314.36246,470.3306,314.36615,470.33044C314.37207,470.33026,314.37628,470.3288,314.37778,470.32593C314.38043,470.32114,314.39523,470.3183,314.4123,470.31766C314.43054,470.31702,314.45132,470.31888,314.46252,470.32346C314.46838,470.32574,314.47244,470.327,314.47577,470.3269C314.48105,470.3267,314.48438,470.32297,314.49002,470.31396C314.5127,470.2801,314.5271,470.23163,314.52054,470.21115C314.51617,470.19836,314.51715,470.17374,314.52414,470.1346C314.5294,470.1014,314.53262,470.04883,314.5319,470.01196C314.53058,469.97638,314.53333,469.92838,314.5383,469.90485C314.5475,469.85596,314.59628,469.7402,314.62747,469.69046C314.65323,469.65067,314.73242,469.58746,314.76965,469.57767C314.78314,469.5746,314.80618,469.56854,314.82092,469.56412C314.83755,469.56003,314.86078,469.55737,314.88474,469.5565 Z"/> </g> </g> </g> </svg>